<svg width="19" height="19" viewBox="0 0 19 19" fill="none" xmlns="http://www.w3.org/2000/svg">
<path d="M17.5 8.79169C17.5032 10.0016 17.2205 11.1951 16.675 12.275C16.0282 13.5691 15.0339 14.6576 13.8035 15.4185C12.5731 16.1795 11.1551 16.5828 9.70833 16.5834C8.49845 16.5865 7.30494 16.3038 6.225 15.7584L1 17.5L2.74167 12.275C2.19619 11.1951 1.91351 10.0016 1.91667 8.79169C1.91723 7.34497 2.32056 5.92697 3.08149 4.69653C3.84242 3.46609 4.9309 2.4718 6.225 1.82503C7.30494 1.27955 8.49845 0.996872 9.70833 1.00003H10.1667C12.0773 1.10544 13.882 1.91189 15.235 3.26498C16.5881 4.61807 17.3946 6.42271 17.5 8.33336V8.79169Z" stroke="#333333" stroke-width="1.5" stroke-linecap="round" stroke-linejoin="round"/>
</svg>
