<svg width="47" height="47" viewBox="0 0 47 47" fill="none" xmlns="http://www.w3.org/2000/svg">
<rect x="14" y="13" width="20" height="22" fill="white"/>
<path d="M0 23.5C0 27.2552 0.882154 30.8103 2.45364 33.9653C2.70431 34.4715 2.72841 35.2259 2.44159 36.3997C2.28971 36.9926 2.11279 37.5788 1.91133 38.1567L1.83903 38.364C1.66067 38.8943 1.46785 39.4727 1.32323 40.0102C0.402513 43.4497 3.55031 46.5975 6.98733 45.6767C7.52723 45.5321 8.10328 45.3393 8.63595 45.1609L8.84323 45.0886C9.42118 44.8872 10.0074 44.7103 10.6003 44.5584C11.7741 44.2691 12.5285 44.2933 13.0347 44.5463C16.2852 46.1659 19.8683 47.006 23.5 47C36.4792 47 47 36.4792 47 23.5C47 10.5208 36.4792 0 23.5 0C10.5208 0 0 10.5208 0 23.5ZM23.5 15.6667C23.9794 15.6667 24.4392 15.8571 24.7782 16.1961C25.1172 16.5351 25.3077 16.9949 25.3077 17.4743V21.6923H29.5256C30.0051 21.6923 30.4649 21.8827 30.8039 22.2218C31.1429 22.5608 31.3333 23.0206 31.3333 23.5C31.3333 23.9794 31.1429 24.4392 30.8039 24.7782C30.4649 25.1172 30.0051 25.3077 29.5256 25.3077H25.3077V29.5256C25.3077 30.005 25.1172 30.4648 24.7782 30.8038C24.4392 31.1429 23.9794 31.3333 23.5 31.3333C23.0206 31.3333 22.5608 31.1429 22.2218 30.8038C21.8828 30.4648 21.6923 30.005 21.6923 29.5256V25.3077H17.4744C16.9949 25.3077 16.5351 25.1172 16.1961 24.7782C15.8571 24.4392 15.6667 23.9794 15.6667 23.5C15.6667 23.0206 15.8571 22.5608 16.1961 22.2218C16.5351 21.8827 16.9949 21.6923 17.4744 21.6923H21.6923V17.4743C21.6923 16.9949 21.8828 16.5351 22.2218 16.1961C22.5608 15.8571 23.0206 15.6667 23.5 15.6667Z" fill="#5886BA"/>
</svg>
