<svg width="21" height="26" viewBox="0 0 21 26" fill="none" xmlns="http://www.w3.org/2000/svg">
<path d="M12.6667 1.33301H3.33333C2.71449 1.33301 2.121 1.57884 1.68342 2.01643C1.24583 2.45401 1 3.0475 1 3.66634V22.333C1 22.9518 1.24583 23.5453 1.68342 23.9829C2.121 24.4205 2.71449 24.6663 3.33333 24.6663H17.3333C17.9522 24.6663 18.5457 24.4205 18.9832 23.9829C19.4208 23.5453 19.6667 22.9518 19.6667 22.333V8.33301M12.6667 1.33301L19.6667 8.33301M12.6667 1.33301L12.6667 8.33301H19.6667M15 14.1663H5.66667M15 18.833H5.66667M8 9.49967H5.66667" stroke="#333333" stroke-width="2" stroke-linecap="round" stroke-linejoin="round"/>
</svg>
