<svg width="22" height="26" viewBox="0 0 22 26" fill="none" xmlns="http://www.w3.org/2000/svg">
<path d="M13.3327 1.33301H3.99935C3.38051 1.33301 2.78702 1.57884 2.34943 2.01643C1.91185 2.45401 1.66602 3.0475 1.66602 3.66634V22.333C1.66602 22.9518 1.91185 23.5453 2.34943 23.9829C2.78702 24.4205 3.38051 24.6663 3.99935 24.6663H17.9993C18.6182 24.6663 19.2117 24.4205 19.6493 23.9829C20.0869 23.5453 20.3327 22.9518 20.3327 22.333V8.33301M13.3327 1.33301L20.3327 8.33301M13.3327 1.33301L13.3327 8.33301H20.3327M15.666 14.1663H6.33268M15.666 18.833H6.33268M8.66602 9.49967H6.33268" stroke="#333333" stroke-width="2" stroke-linecap="round" stroke-linejoin="round"/>
</svg>
