<svg width="20" height="21" viewBox="0 0 20 21" fill="none" xmlns="http://www.w3.org/2000/svg">
<path d="M19 9.81726C19.0034 11.1864 18.6951 12.537 18.1 13.7591C17.3944 15.2235 16.3098 16.4553 14.9674 17.3164C13.6251 18.1774 12.0782 18.6339 10.5 18.6345C9.18013 18.6381 7.87812 18.3182 6.7 17.7009L1 19.6718L2.9 13.7591C2.30493 12.537 1.99656 11.1864 2 9.81726C2.00061 8.18012 2.44061 6.57548 3.27072 5.18308C4.10083 3.79068 5.28825 2.66552 6.7 1.93362C7.87812 1.31634 9.18013 0.99646 10.5 1.00003H11C13.0843 1.11931 15.053 2.03192 16.5291 3.56311C18.0052 5.09429 18.885 7.13646 19 9.2986V9.81726Z" stroke="#2449A4" stroke-width="1.5" stroke-linecap="round" stroke-linejoin="round"/>
</svg>
