<svg width="10" height="2" viewBox="0 0 10 2" fill="none" xmlns="http://www.w3.org/2000/svg">
<path d="M5.5 0.625C5.5 0.748613 5.46334 0.869451 5.39467 0.972232C5.32599 1.07501 5.22838 1.15512 5.11418 1.20243C4.99997 1.24973 4.87431 1.26211 4.75307 1.23799C4.63183 1.21387 4.52047 1.15435 4.43306 1.06694C4.34565 0.979534 4.28613 0.868169 4.26201 0.746931C4.23789 0.625693 4.25027 0.500027 4.29758 0.385823C4.34488 0.271619 4.42499 0.174007 4.52777 0.105331C4.63055 0.0366555 4.75139 0 4.875 0C5.04076 0 5.19973 0.065848 5.31694 0.183058C5.43415 0.300269 5.5 0.45924 5.5 0.625ZM0.625 0C0.501387 0 0.38055 0.0366555 0.277769 0.105331C0.174988 0.174007 0.0948803 0.271619 0.0475756 0.385823C0.000270803 0.500027 -0.0121063 0.625693 0.0120095 0.746931C0.0361252 0.868169 0.0956508 0.979534 0.183059 1.06694C0.270466 1.15435 0.381831 1.21387 0.503069 1.23799C0.624307 1.26211 0.749974 1.24973 0.864178 1.20243C0.978381 1.15512 1.07599 1.07501 1.14467 0.972232C1.21334 0.869451 1.25 0.748613 1.25 0.625C1.25 0.45924 1.18415 0.300269 1.06694 0.183058C0.949732 0.065848 0.790761 0 0.625 0ZM9.125 0C9.00139 0 8.88055 0.0366555 8.77777 0.105331C8.67499 0.174007 8.59488 0.271619 8.54757 0.385823C8.50027 0.500027 8.48789 0.625693 8.51201 0.746931C8.53613 0.868169 8.59565 0.979534 8.68306 1.06694C8.77047 1.15435 8.88183 1.21387 9.00307 1.23799C9.12431 1.26211 9.24997 1.24973 9.36418 1.20243C9.47838 1.15512 9.57599 1.07501 9.64467 0.972232C9.71334 0.869451 9.75 0.748613 9.75 0.625C9.75 0.45924 9.68415 0.300269 9.56694 0.183058C9.44973 0.065848 9.29076 0 9.125 0Z" fill="#333333"/>
</svg>
