<svg width="23" height="21" viewBox="0 0 23 21" fill="none" xmlns="http://www.w3.org/2000/svg">
<path d="M20.3807 2.6193C19.8676 2.10593 19.2583 1.6987 18.5878 1.42085C17.9172 1.14301 17.1985 1 16.4727 1C15.7468 1 15.0281 1.14301 14.3576 1.42085C13.687 1.6987 13.0778 2.10593 12.5646 2.6193L11.4997 3.68421L10.4348 2.6193C9.39834 1.58282 7.99258 1.00054 6.52679 1.00054C5.06099 1.00054 3.65523 1.58282 2.61876 2.6193C1.58229 3.65577 1 5.06153 1 6.52733C1 7.99312 1.58229 9.39888 2.61876 10.4354L3.68367 11.5003L11.4997 19.3163L19.3158 11.5003L20.3807 10.4354C20.8941 9.92223 21.3013 9.31299 21.5791 8.64244C21.857 7.97189 22 7.25316 22 6.52733C22 5.80149 21.857 5.08277 21.5791 4.41221C21.3013 3.74166 20.8941 3.13242 20.3807 2.6193Z" fill="#FF3658" stroke="#FF3658" stroke-width="2" stroke-linecap="round" stroke-linejoin="round"/>
</svg>
