<svg width="37" height="33" viewBox="0 0 37 33" fill="none" xmlns="http://www.w3.org/2000/svg">
<path d="M18.4779 4.99979V7.49979L15.9994 10.9998L20.4994 13.9998L17.9994 17.9998M33.3012 3.69883C32.446 2.84322 31.4306 2.16449 30.313 1.70142C29.1954 1.23834 27.9975 1 26.7878 1C25.5781 1 24.3802 1.23834 23.2626 1.70142C22.145 2.16449 21.1296 2.84322 20.2744 3.69883L18.4996 5.47368L16.7247 3.69883C14.9972 1.97137 12.6543 1.0009 10.2113 1.0009C7.76832 1.0009 5.42539 1.97137 3.69793 3.69883C1.97048 5.42628 1 7.76922 1 10.2122C1 12.6552 1.97048 14.9981 3.69793 16.7256L18.4996 31.5272L33.3012 16.7256C34.1568 15.8704 34.8355 14.855 35.2986 13.7374C35.7617 12.6198 36 11.4219 36 10.2122C36 9.00248 35.7617 7.80461 35.2986 6.68702C34.8355 5.56943 34.1568 4.55403 33.3012 3.69883Z" stroke="#333333" stroke-width="2" stroke-linecap="round" stroke-linejoin="round"/>
</svg>
