<svg width="35" height="35" viewBox="0 0 35 35" fill="none" xmlns="http://www.w3.org/2000/svg">
<path d="M30.3333 34H4.66667C2.64162 34 1 32.3584 1 30.3333V4.66667C1 2.64162 2.64162 1 4.66667 1H30.3333C32.3584 1 34 2.64162 34 4.66667V30.3333C34 32.3584 32.3584 34 30.3333 34ZM30.3333 34L10.1676 13.8336L1.00089 23.0002M21.1658 11.0836C21.1658 12.6023 22.397 13.8336 23.9158 13.8336C25.4346 13.8336 26.6658 12.6023 26.6658 11.0836C26.6658 9.56477 25.4346 8.33356 23.9158 8.33356C22.397 8.33356 21.1658 9.56477 21.1658 11.0836Z" stroke="black" stroke-width="2" stroke-linecap="round" stroke-linejoin="round"/>
</svg>
