<svg width="18" height="20" viewBox="0 0 18 20" fill="none" xmlns="http://www.w3.org/2000/svg">
<path d="M1 4.55521H17M15.2236 4.55556V17C15.2236 17.4715 15.0363 17.9237 14.7029 18.2571C14.3695 18.5905 13.9173 18.7778 13.4458 18.7778H4.55694C4.08545 18.7778 3.63326 18.5905 3.29987 18.2571C2.96647 17.9237 2.77917 17.4715 2.77917 17V4.55556M5.44583 4.55556V2.77778C5.44583 2.30628 5.63313 1.8541 5.96653 1.5207C6.29993 1.1873 6.75211 1 7.22361 1H10.7792C11.2507 1 11.7028 1.1873 12.0362 1.5207C12.3696 1.8541 12.5569 2.30628 12.5569 2.77778V4.55556M7.22083 9V14.3333M10.7792 9V14.3333" stroke="white" stroke-linecap="round" stroke-linejoin="round"/>
</svg>
