<svg width="22" height="21" viewBox="0 0 22 21" fill="none" xmlns="http://www.w3.org/2000/svg">
<path d="M15 19.6718V3.07464C15 2.52441 14.7893 1.99672 14.4142 1.60765C14.0391 1.21858 13.5304 1 13 1H9C8.46957 1 7.96086 1.21858 7.58579 1.60765C7.21071 1.99672 7 2.52441 7 3.07464V19.6718M3 5.14929H19C20.1046 5.14929 21 6.07814 21 7.22393V17.5971C21 18.7429 20.1046 19.6718 19 19.6718H3C1.89543 19.6718 1 18.7429 1 17.5971V7.22393C1 6.07814 1.89543 5.14929 3 5.14929Z" stroke="#2449A4" stroke-width="1.5" stroke-linecap="round" stroke-linejoin="round"/>
</svg>
