<svg width="21" height="20" viewBox="0 0 21 20" fill="none" xmlns="http://www.w3.org/2000/svg">
<path d="M8.94516 1.93894L1.2437 15.7293C1.08491 16.0243 1.0009 16.3587 1.00001 16.6993C0.999118 17.0399 1.08139 17.3748 1.23863 17.6707C1.39588 17.9666 1.62261 18.2131 1.89629 18.3859C2.16996 18.5586 2.48102 18.6514 2.79854 18.6552H18.2015C18.519 18.6514 18.83 18.5586 19.1037 18.3859C19.3774 18.2131 19.6041 17.9666 19.7614 17.6707C19.9186 17.3748 20.0009 17.0399 20 16.6993C19.9991 16.3587 19.9151 16.0243 19.7563 15.7293L12.0548 1.93894C11.8927 1.65231 11.6645 1.41533 11.3922 1.25087C11.1198 1.0864 10.8125 1 10.5 1C10.1875 1 9.88018 1.0864 9.60783 1.25087C9.33549 1.41533 9.10725 1.65231 8.94516 1.93894Z" stroke="#555555" stroke-width="1.5" stroke-linecap="round" stroke-linejoin="round"/>
<path d="M10.4473 6.62988V11.5954" stroke="#555555" stroke-width="1.5" stroke-linecap="round" stroke-linejoin="round"/>
<path d="M10.4473 14.9062H10.4573" stroke="#555555" stroke-width="1.5" stroke-linecap="round" stroke-linejoin="round"/>
</svg>
