<svg width="39" height="44" viewBox="0 0 39 44" fill="none" xmlns="http://www.w3.org/2000/svg">
<path d="M13.8107 38V42.5H32.3105C34.8105 38.5 39.2485 29.3 37.0005 24.5C34.1904 18.5 27.3105 18.5 24.3105 18.5C21.9105 18.5 21.3105 17.1667 21.3105 16.5V6C21.3105 4.33333 20.5105 1 17.3105 1C14.1105 1 13.3105 4.33333 13.3105 6C13.4773 11.8333 13.7107 23.7 13.3105 24.5C12.8105 25.4999 9.81122 23.5004 8.31105 22.5003L8.31055 22.5C6.81055 21.5 4.3107 19.5 1.8107 22C-0.189301 24 1.97737 26.5 3.3107 27.5C5.3107 29.3333 9.7107 33.3 11.3107 34.5C12.9107 35.7 13.644 37.3333 13.8107 38Z" fill="white"/>
<path d="M13.8107 42.5V38C13.644 37.3333 12.9107 35.7 11.3107 34.5C9.7107 33.3 5.3107 29.3333 3.3107 27.5C1.97737 26.5 -0.189301 24 1.8107 22C4.3107 19.5 6.81055 21.5 8.31055 22.5C9.81055 23.5 12.8104 25.5 13.3105 24.5C13.7107 23.7 13.4773 11.8333 13.3105 6C13.3105 4.33333 14.1105 1 17.3105 1C20.5105 1 21.3105 4.33333 21.3105 6V16.5C21.3105 17.1667 21.9105 18.5 24.3105 18.5C27.3105 18.5 34.1904 18.5 37.0005 24.5C39.2485 29.3 34.8105 38.5 32.3105 42.5" stroke="#333333" stroke-width="1.5" stroke-linecap="round"/>
</svg>
